<svg xmlns="http://www.w3.org/2000/svg" width="133.704" height="78.014" viewBox="0 0 133.704 78.014">
  <g id="Group_2027" data-name="Group 2027" transform="translate(-113.296 -236.69)">
    <path id="Path_2570" data-name="Path 2570" d="M3,0A3,3,0,1,1,0,3,3,3,0,0,1,3,0Z" transform="translate(241 241)" fill="#d9dfe350"/>
    <path id="Path_2570_-_Outline" data-name="Path 2570 - Outline" d="M3,1A2,2,0,1,0,5,3,2,2,0,0,0,3,1M3,0A3,3,0,1,1,0,3,3,3,0,0,1,3,0Z" transform="translate(241 241)" fill="#d9dfe350"/>
    <path id="Path_2567" data-name="Path 2567" d="M3,0A3,3,0,1,1,0,3,3,3,0,0,1,3,0Z" transform="translate(220.375 237.004) rotate(93)" fill="#d9dfe350"/>
    <path id="Path_2567_-_Outline" data-name="Path 2567 - Outline" d="M3,1A2,2,0,1,0,5,3,2,2,0,0,0,3,1M3,0A3,3,0,1,1,0,3,3,3,0,0,1,3,0Z" transform="translate(220.375 237.004) rotate(93)" fill="#d9dfe350"/>
    <path id="Path_2563" data-name="Path 2563" d="M.27,34.421l-.54-.842,53-34,.54.842Z" transform="translate(117.5 276.5)" fill="#d9dfe350"/>
    <path id="Path_2564" data-name="Path 2564" d="M4,0A4,4,0,1,1,0,4,4,4,0,0,1,4,0Z" transform="translate(174.704 272.715) rotate(93)" fill="#d9dfe350"/>
    <path id="Path_2564_-_Outline" data-name="Path 2564 - Outline" d="M4,1A3,3,0,1,0,7,4,3,3,0,0,0,4,1M4,0A4,4,0,1,1,0,4,4,4,0,0,1,4,0Z" transform="translate(174.704 272.715) rotate(93)" fill="#d9dfe350"/>
    <path id="Path_2568" data-name="Path 2568" d="M4.244,0A4.244,4.244,0,1,1,0,4.244,4.244,4.244,0,0,1,4.244,0Z" transform="translate(214.07 305.408) rotate(93)" fill="#d9dfe350"/>
    <path id="Path_2568_-_Outline" data-name="Path 2568 - Outline" d="M4.244,1A3.244,3.244,0,1,0,7.488,4.244,3.248,3.248,0,0,0,4.244,1m0-1A4.244,4.244,0,1,1,0,4.244,4.244,4.244,0,0,1,4.244,0Z" transform="translate(214.07 305.408) rotate(93)" fill="#d9dfe350"/>
    <path id="Path_2565" data-name="Path 2565" d="M4,0A4,4,0,1,1,0,4,4,4,0,0,1,4,0Z" transform="translate(121.704 306.715) rotate(93)" fill="#d9dfe3"/>
    <path id="Path_2565_-_Outline" data-name="Path 2565 - Outline" d="M4,1A3,3,0,1,0,7,4,3,3,0,0,0,4,1M4,0A4,4,0,1,1,0,4,4,4,0,0,1,4,0Z" transform="translate(121.704 306.715) rotate(93)" fill="#d9dfe350"/>
    <path id="Path_2562" data-name="Path 2562" d="M.5,70.054-.5,69.946,7.053.193,8.047.3Z" transform="translate(209.5 239.5)" fill="#d9dfe350"/>
    <path id="Path_2566" data-name="Path 2566" d="M38.677,33.382l-39-33L.323-.382l39,33Z" transform="translate(170.5 276.5)" fill="#d9dfe350"/>
    <path id="Path_2569" data-name="Path 2569" d="M25.924,4.494l-26-4L.076-.494l26,4Z" transform="translate(217.5 239.5)" fill="#d9dfe350"/>
  </g>
</svg>
