<svg xmlns="http://www.w3.org/2000/svg" width="102.264" height="91.758" viewBox="0 0 102.264 91.758">
  <g id="Group_2034" data-name="Group 2034" transform="translate(-257.767 -1001.099)">
    <circle id="Ellipse_84" data-name="Ellipse 84" cx="3.167" cy="3.167" r="3.167" transform="translate(264.425 1011.982) rotate(93)" fill="#d9dfe350"/>
    <path id="Ellipse_84_-_Outline" data-name="Ellipse 84 - Outline" d="M3.167,1A2.167,2.167,0,1,0,5.335,3.167,2.17,2.17,0,0,0,3.167,1m0-1A3.167,3.167,0,1,1,0,3.167,3.167,3.167,0,0,1,3.167,0Z" transform="translate(264.425 1011.982) rotate(93)" fill="#d9dfe350"/>
    <circle id="Ellipse_80" data-name="Ellipse 80" cx="3" cy="3" r="3" transform="translate(280.5 1035.5)" fill="#d9dfe350"/>
    <path id="Ellipse_80_-_Outline" data-name="Ellipse 80 - Outline" d="M3,1A2,2,0,1,0,5,3,2,2,0,0,0,3,1M3,0A3,3,0,1,1,0,3,3,3,0,0,1,3,0Z" transform="translate(280.5 1035.5)" fill="#d9dfe350"/>
    <path id="Line_127" data-name="Line 127" d="M.292,28.983l-.584-.812L39.415-.406,40,.406Z" transform="translate(317.5 1003.923)" fill="#d9dfe350"/>
    <circle id="Ellipse_82" data-name="Ellipse 82" cx="4" cy="4" r="4" transform="translate(278.094 1066.919) rotate(93)" fill="#d9dfe350"/>
    <path id="Ellipse_82_-_Outline" data-name="Ellipse 82 - Outline" d="M4,1A3,3,0,1,0,7,4,3,3,0,0,0,4,1M4,0A4,4,0,1,1,0,4,4,4,0,0,1,4,0Z" transform="translate(278.094 1066.919) rotate(93)" fill="#d9dfe350"/>
    <circle id="Ellipse_747" data-name="Ellipse 747" cx="2.687" cy="2.687" r="2.687" transform="translate(360.031 1001.38) rotate(93)" fill="#d9dfe350"/>
    <path id="Ellipse_747_-_Outline" data-name="Ellipse 747 - Outline" d="M2.687,1A1.687,1.687,0,1,0,4.375,2.687,1.689,1.689,0,0,0,2.687,1m0-1A2.687,2.687,0,1,1,0,2.687,2.687,2.687,0,0,1,2.687,0Z" transform="translate(360.031 1001.38) rotate(93)" fill="#d9dfe350"/>
    <circle id="Ellipse_758" data-name="Ellipse 758" cx="2.21" cy="2.21" r="2.21" transform="translate(305.822 1027.409) rotate(93)" fill="#d9dfe350"/>
    <path id="Ellipse_758_-_Outline" data-name="Ellipse 758 - Outline" d="M2.21,1a1.21,1.21,0,1,0,1.21,1.21A1.211,1.211,0,0,0,2.21,1m0-1A2.21,2.21,0,1,1,0,2.21,2.21,2.21,0,0,1,2.21,0Z" transform="translate(305.822 1027.409) rotate(93)" fill="#d9dfe350"/>
    <circle id="Ellipse_759" data-name="Ellipse 759" cx="3.127" cy="3.127" r="3.127" transform="translate(320.786 1028.253) rotate(93)" fill="#d9dfe350"/>
    <path id="Ellipse_759_-_Outline" data-name="Ellipse 759 - Outline" d="M3.127,1A2.127,2.127,0,1,0,5.253,3.127,2.129,2.129,0,0,0,3.127,1m0-1A3.127,3.127,0,1,1,0,3.127,3.127,3.127,0,0,1,3.127,0Z" transform="translate(320.786 1028.253) rotate(93)" fill="#d9dfe350"/>
    <path id="Line_472" data-name="Line 472" d="M.476,85.72l-.953-.3L26.841-.152l.953.3Z" transform="translate(329.89 1004.136)" fill="#d9dfe350"/>
    <path id="Line_132" data-name="Line 132" d="M13.514,57.119l-14-57L.486-.119l14,57Z" transform="translate(259.89 1013.704)" fill="#d9dfe350"/>
    <path id="Line_133" data-name="Line 133" d="M23.248,25.141-.362.345l.724-.69,23.61,24.8Z" transform="translate(259.89 1013.704)" fill="#d9dfe350"/>
    <path id="Line_504" data-name="Line 504" d="M14.3,3.2-.093.491.093-.491,14.482,2.22Z" transform="translate(303.5 1029.5)" fill="#d9dfe350"/>
    <path id="Line_505" data-name="Line 505" d="M.214,9.452l-.428-.9,19-9,.428.9Z" transform="translate(284.5 1029.5)" fill="#d9dfe350"/>
    <path id="Line_471" data-name="Line 471" d="M55.839,19.473l-56-19L.161-.473l56,19Z" transform="translate(273.89 1070.704)" fill="#d9dfe350"/>
    <circle id="Ellipse_83" data-name="Ellipse 83" cx="3" cy="3" r="3" transform="translate(333.043 1086.865) rotate(93)" fill="#d9dfe350"/>
    <path id="Ellipse_83_-_Outline" data-name="Ellipse 83 - Outline" d="M3,1A2,2,0,1,0,5,3,2,2,0,0,0,3,1M3,0A3,3,0,1,1,0,3,3,3,0,0,1,3,0Z" transform="translate(333.043 1086.865) rotate(93)" fill="#d9dfe350"/>
    <circle id="Ellipse_748" data-name="Ellipse 748" cx="2.687" cy="2.687" r="2.687" transform="translate(341.538 1059.161) rotate(93)" fill="#d9dfe350"/>
    <path id="Ellipse_748_-_Outline" data-name="Ellipse 748 - Outline" d="M2.687,1A1.687,1.687,0,1,0,4.375,2.687,1.689,1.689,0,0,0,2.687,1m0-1A2.687,2.687,0,1,1,0,2.687,2.687,2.687,0,0,1,2.687,0Z" transform="translate(341.538 1059.161) rotate(93)" fill="#d9dfe350"/>
  </g>
</svg>
