
<svg xmlns="http://www.w3.org/2000/svg" viewBox="0 0 648.04 76.96"><defs><style>.cls-1{fill:#fff;}.cls-2{fill:none;}.cls-3{fill:#008190;}.cls-4{fill:#99ccd2;}</style></defs><g id="Layer_2" data-name="Layer 2"><g id="Layer_1-2" data-name="Layer 1"><path class="cls-1" d="M208.84,40.35a14.9,14.9,0,0,0-3.81-2.6,10.57,10.57,0,0,0-4.63-1,8.12,8.12,0,0,0-3.45.73,2.55,2.55,0,0,0-1.58,2.51,2.51,2.51,0,0,0,1.75,2.44A36.9,36.9,0,0,0,202.76,44a31.78,31.78,0,0,1,4.58,1.38,16.14,16.14,0,0,1,4.18,2.36,11.17,11.17,0,0,1,3,3.57,10.52,10.52,0,0,1,1.13,5,12.1,12.1,0,0,1-5.56,10.71,17.18,17.18,0,0,1-5.56,2.35,26.48,26.48,0,0,1-6.17.74,30.28,30.28,0,0,1-9.69-1.59,20.35,20.35,0,0,1-7.92-4.66L188.23,56a14.81,14.81,0,0,0,4.38,3.25,12.12,12.12,0,0,0,5.52,1.3,7.35,7.35,0,0,0,3.21-.77,2.77,2.77,0,0,0,1.58-2.72A2.91,2.91,0,0,0,201,54.31a34.63,34.63,0,0,0-6.09-1.87,30,30,0,0,1-4.22-1.3A13.45,13.45,0,0,1,186.89,49a10.77,10.77,0,0,1-2.72-3.41,10.45,10.45,0,0,1-1-4.87,11.76,11.76,0,0,1,1.54-6.2,13,13,0,0,1,4-4.18,17.79,17.79,0,0,1,5.4-2.4,23.53,23.53,0,0,1,5.89-.77,28.25,28.25,0,0,1,8.88,1.42,19.25,19.25,0,0,1,7.35,4.26Z"/><path class="cls-1" d="M236.68,15.51a7.17,7.17,0,0,1-.58,2.89,7.47,7.47,0,0,1-1.56,2.31,7,7,0,0,1-2.33,1.54,7.23,7.23,0,0,1-2.83.57,7,7,0,0,1-5.21-2.15,7.13,7.13,0,0,1-2.1-5.16,7.28,7.28,0,0,1,.55-2.8,6.67,6.67,0,0,1,1.55-2.31,8.19,8.19,0,0,1,2.33-1.58,6.73,6.73,0,0,1,2.88-.61,7.23,7.23,0,0,1,2.83.57,7,7,0,0,1,2.33,1.54,7.47,7.47,0,0,1,1.56,2.31A7.16,7.16,0,0,1,236.68,15.51Z"/><rect class="cls-1" x="222.72" y="28.42" width="13.31" height="40.42"/><path class="cls-1" d="M246.33,68.84V15.51h13.55V68.84Z"/><path class="cls-1" d="M284.05,15.51a7.17,7.17,0,0,1-.58,2.89,7.62,7.62,0,0,1-1.55,2.31,7.23,7.23,0,0,1-2.33,1.54,7.31,7.31,0,0,1-2.84.57,7,7,0,0,1-5.21-2.15,7.12,7.12,0,0,1-2.09-5.16,7.46,7.46,0,0,1,.54-2.8,6.67,6.67,0,0,1,1.55-2.31,8.34,8.34,0,0,1,2.33-1.58,6.73,6.73,0,0,1,2.88-.61,7.31,7.31,0,0,1,2.84.57,7.23,7.23,0,0,1,2.33,1.54,7.62,7.62,0,0,1,1.55,2.31A7.16,7.16,0,0,1,284.05,15.51Z"/><rect class="cls-1" x="270.09" y="28.42" width="13.31" height="40.42"/><path class="cls-1" d="M320.65,41.49a8.07,8.07,0,0,0-3.08-2.36,9.56,9.56,0,0,0-4-.89,8.34,8.34,0,0,0-3.81.85,9.47,9.47,0,0,0-2.93,2.27,10.82,10.82,0,0,0-1.9,3.29,11.41,11.41,0,0,0-.69,4,11.77,11.77,0,0,0,.65,4,9.53,9.53,0,0,0,1.9,3.29,9.05,9.05,0,0,0,6.94,3,11.16,11.16,0,0,0,4-.77A7.75,7.75,0,0,0,321,55.93l7.38,9a17.29,17.29,0,0,1-6.49,3.82,25.58,25.58,0,0,1-8.44,1.38,26.78,26.78,0,0,1-8.94-1.46,20.78,20.78,0,0,1-7.21-4.27,19.81,19.81,0,0,1-4.82-6.77,22.11,22.11,0,0,1-1.76-9,21.9,21.9,0,0,1,1.76-8.93,20,20,0,0,1,4.82-6.78,21.32,21.32,0,0,1,7.21-4.3,25.84,25.84,0,0,1,8.86-1.5,23.45,23.45,0,0,1,4.34.41,29.24,29.24,0,0,1,4.14,1.09,18.83,18.83,0,0,1,3.65,1.71,15.06,15.06,0,0,1,2.88,2.23Z"/><path class="cls-1" d="M375.75,48.47a21.78,21.78,0,0,1-1.78,9,20.35,20.35,0,0,1-4.87,6.82A22.18,22.18,0,0,1,362,68.59a25,25,0,0,1-17.33,0,21.5,21.5,0,0,1-7.15-4.34,20.51,20.51,0,0,1-4.82-6.82,21.79,21.79,0,0,1-1.79-9,21.58,21.58,0,0,1,1.79-8.93,20.18,20.18,0,0,1,4.82-6.74,21.06,21.06,0,0,1,7.15-4.22,26.44,26.44,0,0,1,17.33,0,21.71,21.71,0,0,1,7.14,4.22A20,20,0,0,1,374,39.54,21.58,21.58,0,0,1,375.75,48.47Zm-12.82,0a11.66,11.66,0,0,0-.65-3.82,10.17,10.17,0,0,0-1.87-3.29,9.62,9.62,0,0,0-3-2.31,9.33,9.33,0,0,0-11.24,2.31,10,10,0,0,0-1.79,3.29,12.43,12.43,0,0,0,0,7.63,10.5,10.5,0,0,0,1.83,3.37,8.9,8.9,0,0,0,3,2.39,10,10,0,0,0,8.28,0,8.9,8.9,0,0,0,3-2.39,10.13,10.13,0,0,0,1.83-3.37A12.39,12.39,0,0,0,362.93,48.47Z"/><path class="cls-1" d="M408.94,68.84V46.76a18,18,0,0,0-.28-3.25,8.76,8.76,0,0,0-.94-2.71,4.81,4.81,0,0,0-1.82-1.87,5.8,5.8,0,0,0-3-.69,6.71,6.71,0,0,0-3.12.69,6.22,6.22,0,0,0-2.23,1.91,8.55,8.55,0,0,0-1.34,2.8,11.92,11.92,0,0,0-.45,3.28V68.84H382.4V28.42h12.91V34h.16a13.19,13.19,0,0,1,1.91-2.56,11.49,11.49,0,0,1,2.75-2.15,17.79,17.79,0,0,1,3.45-1.46,13.58,13.58,0,0,1,4-.57,15,15,0,0,1,6.9,1.46A13.27,13.27,0,0,1,419,32.52a14.66,14.66,0,0,1,2.52,5.31,24.35,24.35,0,0,1,.77,6v25Z"/><path class="cls-1" d="M477.77,39.38a9.42,9.42,0,0,0-1.75-.33c-.57,0-1.12-.08-1.66-.08a9.49,9.49,0,0,0-4.51,1,9.24,9.24,0,0,0-2.92,2.35,8.8,8.8,0,0,0-1.58,3,9.9,9.9,0,0,0-.49,2.84V68.84H451.55V28.47h12.82v5.84h.17a13.09,13.09,0,0,1,4.38-5.07,11.32,11.32,0,0,1,6.57-2c.54,0,1.07,0,1.58.08a6.2,6.2,0,0,1,1.26.25l-.54,11.2Z"/><path class="cls-1" d="M511.41,68.84V46.92a21.07,21.07,0,0,0-.25-3.24,7.61,7.61,0,0,0-.93-2.72,5.21,5.21,0,0,0-1.83-1.87,5.56,5.56,0,0,0-2.92-.69,6.32,6.32,0,0,0-5.36,2.48A9.91,9.91,0,0,0,498.26,47V68.84H485V15.51h13.31v18h.16a12.7,12.7,0,0,1,4.38-4.34A13.21,13.21,0,0,1,510,27.28,14.94,14.94,0,0,1,517,28.74a13.4,13.4,0,0,1,4.54,3.78A15,15,0,0,1,524,37.83a24.35,24.35,0,0,1,.77,6v25Z"/><path class="cls-1" d="M547.75,15.51a7.17,7.17,0,0,1-.58,2.89,7.62,7.62,0,0,1-1.55,2.31,7.23,7.23,0,0,1-2.33,1.54,7.31,7.31,0,0,1-2.84.57,7,7,0,0,1-5.21-2.15,7.13,7.13,0,0,1-2.1-5.16,7.28,7.28,0,0,1,.55-2.8,6.67,6.67,0,0,1,1.55-2.31,8.19,8.19,0,0,1,2.33-1.58,6.73,6.73,0,0,1,2.88-.61,7.31,7.31,0,0,1,2.84.57,7.23,7.23,0,0,1,2.33,1.54,7.62,7.62,0,0,1,1.55,2.31A7.16,7.16,0,0,1,547.75,15.51Z"/><rect class="cls-1" x="533.79" y="28.42" width="13.31" height="40.42"/><path class="cls-1" d="M583,68.84V46.76a18,18,0,0,0-.28-3.25,9,9,0,0,0-.93-2.71,4.83,4.83,0,0,0-1.83-1.87,5.76,5.76,0,0,0-3-.69,6.78,6.78,0,0,0-3.13.69,6.31,6.31,0,0,0-2.23,1.91,8.76,8.76,0,0,0-1.34,2.8,12.3,12.3,0,0,0-.44,3.28V68.84h-13.4V28.42h12.91V34h.16a13.19,13.19,0,0,1,1.91-2.56,11.35,11.35,0,0,1,2.76-2.15,17.54,17.54,0,0,1,3.45-1.46,13.53,13.53,0,0,1,4-.57,15,15,0,0,1,6.9,1.46,13.27,13.27,0,0,1,4.58,3.78,15,15,0,0,1,2.52,5.31,24.35,24.35,0,0,1,.77,6v25Z"/><path class="cls-1" d="M648,48.47a21.78,21.78,0,0,1-1.78,9,20.21,20.21,0,0,1-4.87,6.82,22.18,22.18,0,0,1-7.14,4.34,25,25,0,0,1-17.33,0,21.55,21.55,0,0,1-7.14-4.34A20.39,20.39,0,0,1,605,57.43a21.79,21.79,0,0,1-1.79-9A21.58,21.58,0,0,1,605,39.54a20.06,20.06,0,0,1,4.83-6.74,21.11,21.11,0,0,1,7.14-4.22,26.44,26.44,0,0,1,17.33,0,21.71,21.71,0,0,1,7.14,4.22,19.89,19.89,0,0,1,4.87,6.74A21.58,21.58,0,0,1,648,48.47Zm-12.82,0a11.66,11.66,0,0,0-.65-3.82,10.14,10.14,0,0,0-1.86-3.29,9.78,9.78,0,0,0-3-2.31,9.33,9.33,0,0,0-11.24,2.31,10.17,10.17,0,0,0-1.79,3.29,12.43,12.43,0,0,0,0,7.63,10.5,10.5,0,0,0,1.83,3.37,8.9,8.9,0,0,0,3,2.39,9.28,9.28,0,0,0,11.29-2.39,10.29,10.29,0,0,0,1.82-3.37A12.1,12.1,0,0,0,635.22,48.47Z"/><line class="cls-2" x1="406.37" y1="38.23" x2="405.79" y2="40.12"/><path class="cls-3" d="M96,0A55.4,55.4,0,0,0,79.87,2.38L61.72,58.25A17.6,17.6,0,0,1,78,75.8c0,.38,0,.75-.06,1.12v0H93.46l10.13-31.18,4.76,1.54-3.86,11.87h8.64c12.05,0,22.07,7.34,24.15,17,.06.25.11.48.15.74h9.84A55.57,55.57,0,0,0,96,0Z"/><path class="cls-4" d="M55.8,16.64h0C51.41,6,47.55,6.85,46.78,7,44.54,7.66,42,11.7,51,19.92l-.46.31-.66.42-5.29,3.66a2.8,2.8,0,0,1-2.77.23c-2.49-1.16-7.28-3.32-7.13-2,.5,4.05-.37,5.88-2.08,6.83-1,.54-15.62,9.6-30.05-16.58-.24-.43-1-1.83-1-1.83A45,45,0,0,0,45,67.75a45.74,45.74,0,0,0,8.66-.83L74.06,4.08Z"/></g></g></svg>
